<?xml version="1.0" encoding="UTF-8" standalone="no"?>
<!-- Created with Inkscape (http://www.inkscape.org/) -->

<svg
   xmlns:dc="http://purl.org/dc/elements/1.1/"
   xmlns:cc="http://creativecommons.org/ns#"
   xmlns:rdf="http://www.w3.org/1999/02/22-rdf-syntax-ns#"
   xmlns:svg="http://www.w3.org/2000/svg"
   xmlns="http://www.w3.org/2000/svg"
   xmlns:sodipodi="http://sodipodi.sourceforge.net/DTD/sodipodi-0.dtd"
   xmlns:inkscape="http://www.inkscape.org/namespaces/inkscape"
   width="20"
   height="10"
   id="svg2"
   version="1.1"
   inkscape:version="0.48.4 r9939"
   sodipodi:docname="creep_fast.svg"
   inkscape:export-filename="C:\Users\drk\Dropbox\projects\tower_defense\images\creep_fast_slow.png"
   inkscape:export-xdpi="90"
   inkscape:export-ydpi="90">
  <defs
     id="defs4" />
  <sodipodi:namedview
     id="base"
     pagecolor="#ffffff"
     bordercolor="#666666"
     borderopacity="1.0"
     inkscape:pageopacity="0.0"
     inkscape:pageshadow="2"
     inkscape:zoom="32"
     inkscape:cx="1.8685549"
     inkscape:cy="4.4349519"
     inkscape:document-units="px"
     inkscape:current-layer="layer2"
     showgrid="true"
     inkscape:window-width="1920"
     inkscape:window-height="1005"
     inkscape:window-x="-9"
     inkscape:window-y="-9"
     inkscape:window-maximized="1"
     showguides="true"
     inkscape:guide-bbox="true">
    <inkscape:grid
       type="xygrid"
       id="grid4099"
       empspacing="5"
       visible="true"
       enabled="true"
       snapvisiblegridlinesonly="true"
       spacingx="0.5px"
       spacingy="0.5px" />
    <sodipodi:guide
       orientation="0,1"
       position="0,5"
       id="guide2987" />
  </sodipodi:namedview>
  <metadata
     id="metadata7">
    <rdf:RDF>
      <cc:Work
         rdf:about="">
        <dc:format>image/svg+xml</dc:format>
        <dc:type
           rdf:resource="http://purl.org/dc/dcmitype/StillImage" />
        <dc:title></dc:title>
      </cc:Work>
    </rdf:RDF>
  </metadata>
  <g
     inkscape:label="creep"
     inkscape:groupmode="layer"
     id="layer1"
     transform="translate(0,-1042.3622)"
     style="display:inline">
    <g
       id="g3757"
       transform="matrix(1.0003588,0,0,1,9.9964117,6.376844e-5)">
      <path
         transform="matrix(0.92174725,0,0,0.92174725,0.39126373,1042.7534)"
         sodipodi:nodetypes="sscss"
         inkscape:connector-curvature="0"
         id="path4101"
         d="M 10,5 C 10,7.7614237 7.7614237,10 5,10 2.2385763,10 -10.841178,7.7369012 -10.841178,5.0000692 -10.841178,2.2632372 2.2385763,0 5,0 c 2.7614237,0 5,2.2385763 5,5 z"
         style="fill:#eba42f;fill-opacity:1;stroke:#000000;stroke-width:0.848961;stroke-miterlimit:4;stroke-opacity:1" />
      <path
         transform="translate(0,1042.3622)"
         d="m 8,3.5 a 1,1 0 1 1 -2,0 1,1 0 1 1 2,0 z"
         sodipodi:ry="1"
         sodipodi:rx="1"
         sodipodi:cy="3.5"
         sodipodi:cx="7"
         id="path4883"
         style="fill:#000000;fill-opacity:1;stroke:none"
         sodipodi:type="arc" />
      <path
         sodipodi:type="arc"
         style="fill:#000000;fill-opacity:1;stroke:none"
         id="path4885"
         sodipodi:cx="7"
         sodipodi:cy="3.5"
         sodipodi:rx="1"
         sodipodi:ry="1"
         d="m 8,3.5 a 1,1 0 1 1 -2,0 1,1 0 1 1 2,0 z"
         transform="translate(0,1045.3622)" />
    </g>
  </g>
  <g
     inkscape:groupmode="layer"
     id="layer2"
     inkscape:label="slow"
     style="display:inline">
    <path
       sodipodi:nodetypes="sscss"
       inkscape:connector-curvature="0"
       id="path2991"
       d="m 19.608596,5.0000362 c 0,2.5453348 -2.064142,4.6087363 -4.61039,4.6087363 -2.546248,0 -14.6068014,-2.0860051 -14.6068014,-4.6086725 0,-2.5226673 12.0605534,-4.6088 14.6068014,-4.6088 2.546248,0 4.61039,2.0634015 4.61039,4.6087362 z"
       style="fill:none;stroke:#000000;stroke-width:0.78266782;stroke-miterlimit:4;stroke-opacity:1" />
    <path
       sodipodi:nodetypes="sscss"
       inkscape:connector-curvature="0"
       id="path3003"
       d="m 19.608596,5.0000362 c 0,2.5453348 -2.064142,4.6087363 -4.61039,4.6087363 -2.546248,0 -14.6068014,-2.0860051 -14.6068014,-4.6086725 0,-2.5226673 12.0605534,-4.6088 14.6068014,-4.6088 2.546248,0 4.61039,2.0634015 4.61039,4.6087362 z"
       style="fill:none;stroke:#1cd3f1;stroke-width:0.78266782;stroke-miterlimit:4;stroke-opacity:1" />
  </g>
</svg>
