<?xml version="1.0" encoding="UTF-8" standalone="no"?>
<!-- Created with Inkscape (http://www.inkscape.org/) -->

<svg
   xmlns:dc="http://purl.org/dc/elements/1.1/"
   xmlns:cc="http://creativecommons.org/ns#"
   xmlns:rdf="http://www.w3.org/1999/02/22-rdf-syntax-ns#"
   xmlns:svg="http://www.w3.org/2000/svg"
   xmlns="http://www.w3.org/2000/svg"
   xmlns:sodipodi="http://sodipodi.sourceforge.net/DTD/sodipodi-0.dtd"
   xmlns:inkscape="http://www.inkscape.org/namespaces/inkscape"
   width="15"
   height="10"
   id="svg2"
   version="1.1"
   inkscape:version="0.48.4 r9939"
   sodipodi:docname="creep_spawn1.svg"
   inkscape:export-filename="C:\Users\drk\Dropbox\projects\tower_defense\images\creep_spawn1.png"
   inkscape:export-xdpi="90"
   inkscape:export-ydpi="90">
  <defs
     id="defs4" />
  <sodipodi:namedview
     id="base"
     pagecolor="#ffffff"
     bordercolor="#666666"
     borderopacity="1.0"
     inkscape:pageopacity="0.0"
     inkscape:pageshadow="2"
     inkscape:zoom="64"
     inkscape:cx="5.2804129"
     inkscape:cy="4.7591976"
     inkscape:document-units="px"
     inkscape:current-layer="layer2"
     showgrid="true"
     inkscape:window-width="1920"
     inkscape:window-height="1005"
     inkscape:window-x="-9"
     inkscape:window-y="-9"
     inkscape:window-maximized="1">
    <inkscape:grid
       type="xygrid"
       id="grid4099"
       empspacing="5"
       visible="true"
       enabled="true"
       snapvisiblegridlinesonly="true"
       spacingx="0.25px"
       spacingy="0.25px" />
  </sodipodi:namedview>
  <metadata
     id="metadata7">
    <rdf:RDF>
      <cc:Work
         rdf:about="">
        <dc:format>image/svg+xml</dc:format>
        <dc:type
           rdf:resource="http://purl.org/dc/dcmitype/StillImage" />
        <dc:title></dc:title>
      </cc:Work>
    </rdf:RDF>
  </metadata>
  <g
     inkscape:label="main_creep"
     inkscape:groupmode="layer"
     id="layer1"
     transform="translate(0,-1042.3622)"
     style="display:inline">
    <g
       id="g2995"
       transform="translate(5.1217006,0.00329944)">
      <path
         transform="translate(0,1042.3622)"
         id="path4101"
         d="m -0.25,0.625 c -2.418068,0 -4.375,1.956932 -4.375,4.375 0,2.418068 1.956932,4.375 4.375,4.375 0.99414063,0 1.8900389,-0.3479872 2.625,-0.90625 C 3.1099611,9.0270128 4.0058594,9.375 5,9.375 7.418068,9.375 9.375,7.418068 9.375,5 9.375,2.581932 7.418068,0.625 5,0.625 4.0058594,0.625 3.1099611,0.97298722 2.375,1.53125 1.6400389,0.97298722 0.74414063,0.625 -0.25,0.625 z"
         style="fill:#10c247;fill-opacity:1;stroke:#000000;stroke-width:0.74340111;stroke-miterlimit:4;stroke-opacity:1;stroke-dasharray:none"
         inkscape:connector-curvature="0" />
      <path
         transform="matrix(0.95,0,0,0.95,0.25,1042.6123)"
         d="m 8,3.5 a 1,1 0 1 1 -2,0 1,1 0 1 1 2,0 z"
         sodipodi:ry="1"
         sodipodi:rx="1"
         sodipodi:cy="3.5"
         sodipodi:cx="7"
         id="path4883"
         style="fill:#000000;fill-opacity:1;stroke:none"
         sodipodi:type="arc" />
      <path
         sodipodi:type="arc"
         style="fill:#000000;fill-opacity:1;stroke:none"
         id="path4885"
         sodipodi:cx="7"
         sodipodi:cy="3.5"
         sodipodi:rx="1"
         sodipodi:ry="1"
         d="m 8,3.5 a 1,1 0 1 1 -2,0 1,1 0 1 1 2,0 z"
         transform="matrix(0.95,0,0,0.95,0.25,1045.4623)" />
    </g>
  </g>
  <g
     inkscape:groupmode="layer"
     id="layer2"
     inkscape:label="main_slow"
     style="display:none">
    <path
       id="path3002"
       d="m 4.8717006,0.6283 c -2.418068,0 -4.375,1.956932 -4.375,4.375 0,2.418068 1.956932,4.375 4.375,4.375 0.9941406,0 1.8900389,-0.3479872 2.625,-0.90625 0.7349611,0.5582628 1.6308594,0.90625 2.6250004,0.90625 2.418068,0 4.375,-1.956932 4.375,-4.375 0,-2.418068 -1.956932,-4.375 -4.375,-4.375 -0.994141,0 -1.8900393,0.34798722 -2.6250004,0.90625 C 6.7617395,0.97628722 5.8658412,0.6283 4.8717006,0.6283 z"
       style="fill:none;stroke:#1cd3f1;stroke-width:0.74340111;stroke-miterlimit:4;stroke-opacity:1;stroke-dasharray:none"
       inkscape:connector-curvature="0" />
  </g>
</svg>
