<?xml version="1.0" encoding="UTF-8" standalone="no"?>
<!-- Created with Inkscape (http://www.inkscape.org/) -->

<svg
   xmlns:dc="http://purl.org/dc/elements/1.1/"
   xmlns:cc="http://creativecommons.org/ns#"
   xmlns:rdf="http://www.w3.org/1999/02/22-rdf-syntax-ns#"
   xmlns:svg="http://www.w3.org/2000/svg"
   xmlns="http://www.w3.org/2000/svg"
   xmlns:sodipodi="http://sodipodi.sourceforge.net/DTD/sodipodi-0.dtd"
   xmlns:inkscape="http://www.inkscape.org/namespaces/inkscape"
   width="20"
   height="20"
   id="svg2"
   version="1.1"
   inkscape:version="0.48.4 r9939"
   sodipodi:docname="tower_fast.svg"
   inkscape:export-filename="C:\Users\drk\Dropbox\projects\tower_defense\images\tower_fast.png"
   inkscape:export-xdpi="90"
   inkscape:export-ydpi="90">
  <defs
     id="defs4">
    <marker
       inkscape:stockid="Arrow1Lstart"
       orient="auto"
       refY="0.0"
       refX="0.0"
       id="Arrow1Lstart"
       style="overflow:visible">
      <path
         id="path3770"
         d="M 0.0,0.0 L 5.0,-5.0 L -12.5,0.0 L 5.0,5.0 L 0.0,0.0 z "
         style="fill-rule:evenodd;stroke:#000000;stroke-width:1.0pt"
         transform="scale(0.8) translate(12.5,0)" />
    </marker>
  </defs>
  <sodipodi:namedview
     id="base"
     pagecolor="#ffffff"
     bordercolor="#666666"
     borderopacity="1.0"
     inkscape:pageopacity="0.0"
     inkscape:pageshadow="2"
     inkscape:zoom="32"
     inkscape:cx="9.9944969"
     inkscape:cy="10.279472"
     inkscape:document-units="px"
     inkscape:current-layer="layer2"
     showgrid="true"
     inkscape:window-width="1243"
     inkscape:window-height="723"
     inkscape:window-x="383"
     inkscape:window-y="144"
     inkscape:window-maximized="0"
     showguides="true"
     inkscape:guide-bbox="true">
    <inkscape:grid
       type="xygrid"
       id="grid2985"
       empspacing="5"
       visible="true"
       enabled="true"
       snapvisiblegridlinesonly="true" />
    <sodipodi:guide
       orientation="0,1"
       position="6,10"
       id="guide3778" />
    <sodipodi:guide
       orientation="1,0"
       position="10,10"
       id="guide3780" />
  </sodipodi:namedview>
  <metadata
     id="metadata7">
    <rdf:RDF>
      <cc:Work
         rdf:about="">
        <dc:format>image/svg+xml</dc:format>
        <dc:type
           rdf:resource="http://purl.org/dc/dcmitype/StillImage" />
        <dc:title></dc:title>
      </cc:Work>
    </rdf:RDF>
  </metadata>
  <g
     inkscape:label="base"
     inkscape:groupmode="layer"
     id="layer1"
     transform="translate(0,-1032.3622)"
     style="display:none">
    <rect
       style="fill:#496154;fill-opacity:1;stroke:none"
       id="rect4766"
       width="5"
       height="2"
       x="0"
       y="1032.3622" />
    <rect
       y="1032.3622"
       x="6"
       height="2"
       width="5"
       id="rect4786"
       style="fill:#496154;fill-opacity:1;stroke:none" />
    <rect
       style="fill:#496154;fill-opacity:1;stroke:none"
       id="rect4788"
       width="5"
       height="2"
       x="12"
       y="1032.3622" />
    <rect
       y="18"
       x="-1037.3622"
       height="2"
       width="5"
       id="rect4790"
       style="fill:#496154;fill-opacity:1;stroke:none"
       transform="matrix(0,-1,1,0,0,0)" />
    <rect
       transform="matrix(0,-1,1,0,0,0)"
       style="fill:#496154;fill-opacity:1;stroke:none"
       id="rect4792"
       width="5"
       height="2"
       x="-1043.3622"
       y="18" />
    <rect
       y="18"
       x="-1049.3622"
       height="2"
       width="5"
       id="rect4794"
       style="fill:#496154;fill-opacity:1;stroke:none"
       transform="matrix(0,-1,1,0,0,0)" />
    <rect
       transform="matrix(0,-1,1,0,0,0)"
       style="fill:#496154;fill-opacity:1;stroke:none"
       id="rect4796"
       width="5"
       height="2"
       x="-1040.3622"
       y="0" />
    <rect
       y="2.9901255e-008"
       x="-1046.3622"
       height="2"
       width="5"
       id="rect4798"
       style="fill:#496154;fill-opacity:1;stroke:none"
       transform="matrix(0,-1,1,0,0,0)" />
    <rect
       transform="matrix(0,-1,1,0,0,0)"
       style="fill:#496154;fill-opacity:1;stroke:none"
       id="rect4800"
       width="5"
       height="2"
       x="-1052.3622"
       y="2.9901255e-008" />
    <rect
       style="fill:#496154;fill-opacity:1;stroke:none"
       id="rect4802"
       width="5"
       height="2"
       x="3"
       y="1050.3622" />
    <rect
       y="1050.3622"
       x="9"
       height="2"
       width="5"
       id="rect4804"
       style="fill:#496154;fill-opacity:1;stroke:none" />
    <rect
       style="fill:#496154;fill-opacity:1;stroke:none"
       id="rect4806"
       width="5"
       height="2"
       x="15"
       y="1050.3622" />
  </g>
  <g
     inkscape:groupmode="layer"
     id="layer2"
     inkscape:label="tower"
     style="opacity:0.93999999;display:inline">
    <path
       style="fill:none;stroke:#496154;stroke-width:1.99773598;stroke-linecap:butt;stroke-linejoin:miter;stroke-miterlimit:4;stroke-opacity:1;stroke-dasharray:none"
       d="M 9.9875564,5.498868 C 7.5085222,5.498868 5.498868,7.5140934 5.498868,10 c 0,2.485906 2.0096542,4.501132 4.4886884,4.501132 1.6607416,0 3.0889006,-0.906122 3.8652596,-2.250566 l 3.148316,-1.375346 0,-1.7504401 L 13.852816,7.749434 C 13.076457,6.4049895 11.648298,5.498868 9.9875564,5.498868 z"
       id="path3000"
       inkscape:connector-curvature="0" />
    <path
       sodipodi:type="arc"
       style="fill:#496154;fill-opacity:1;stroke:none"
       id="path3790"
       sodipodi:cx="10"
       sodipodi:cy="10"
       sodipodi:rx="1"
       sodipodi:ry="1"
       d="m 11,10 a 1,1 0 1 1 -2,0 1,1 0 1 1 2,0 z"
       transform="matrix(2,0,0,2,-10,-10)" />
  </g>
</svg>
