<?xml version="1.0" encoding="UTF-8" standalone="no"?>
<!-- Created with Inkscape (http://www.inkscape.org/) -->

<svg
   xmlns:dc="http://purl.org/dc/elements/1.1/"
   xmlns:cc="http://creativecommons.org/ns#"
   xmlns:rdf="http://www.w3.org/1999/02/22-rdf-syntax-ns#"
   xmlns:svg="http://www.w3.org/2000/svg"
   xmlns="http://www.w3.org/2000/svg"
   xmlns:sodipodi="http://sodipodi.sourceforge.net/DTD/sodipodi-0.dtd"
   xmlns:inkscape="http://www.inkscape.org/namespaces/inkscape"
   width="20"
   height="20"
   id="svg2"
   version="1.1"
   inkscape:version="0.48.4 r9939"
   sodipodi:docname="tower_anti_air.svg"
   inkscape:export-filename="C:\Users\drk\Dropbox\projects\tower_defense\images\tower_anti_air.png"
   inkscape:export-xdpi="90"
   inkscape:export-ydpi="90">
  <defs
     id="defs4">
    <marker
       inkscape:stockid="Arrow1Lstart"
       orient="auto"
       refY="0.0"
       refX="0.0"
       id="Arrow1Lstart"
       style="overflow:visible">
      <path
         id="path3770"
         d="M 0.0,0.0 L 5.0,-5.0 L -12.5,0.0 L 5.0,5.0 L 0.0,0.0 z "
         style="fill-rule:evenodd;stroke:#000000;stroke-width:1.0pt"
         transform="scale(0.8) translate(12.5,0)" />
    </marker>
  </defs>
  <sodipodi:namedview
     id="base"
     pagecolor="#ffffff"
     bordercolor="#666666"
     borderopacity="1.0"
     inkscape:pageopacity="0.0"
     inkscape:pageshadow="2"
     inkscape:zoom="45.254834"
     inkscape:cx="9.6853616"
     inkscape:cy="10.050902"
     inkscape:document-units="px"
     inkscape:current-layer="layer2"
     showgrid="false"
     inkscape:window-width="1243"
     inkscape:window-height="723"
     inkscape:window-x="383"
     inkscape:window-y="144"
     inkscape:window-maximized="0"
     showguides="true"
     inkscape:guide-bbox="true">
    <inkscape:grid
       type="xygrid"
       id="grid2985"
       empspacing="5"
       visible="true"
       enabled="true"
       snapvisiblegridlinesonly="true"
       spacingx="0.5px"
       spacingy="0.5px" />
  </sodipodi:namedview>
  <metadata
     id="metadata7">
    <rdf:RDF>
      <cc:Work
         rdf:about="">
        <dc:format>image/svg+xml</dc:format>
        <dc:type
           rdf:resource="http://purl.org/dc/dcmitype/StillImage" />
        <dc:title></dc:title>
      </cc:Work>
    </rdf:RDF>
  </metadata>
  <g
     inkscape:label="base"
     inkscape:groupmode="layer"
     id="layer1"
     transform="translate(0,-1032.3622)"
     style="display:none">
    <rect
       style="fill:#496154;fill-opacity:1;stroke:none"
       id="rect4766"
       width="5"
       height="2"
       x="0"
       y="1032.3622" />
    <rect
       y="1032.3622"
       x="6"
       height="2"
       width="5"
       id="rect4786"
       style="fill:#496154;fill-opacity:1;stroke:none" />
    <rect
       style="fill:#496154;fill-opacity:1;stroke:none"
       id="rect4788"
       width="5"
       height="2"
       x="12"
       y="1032.3622" />
    <rect
       y="18"
       x="-1037.3622"
       height="2"
       width="5"
       id="rect4790"
       style="fill:#496154;fill-opacity:1;stroke:none"
       transform="matrix(0,-1,1,0,0,0)" />
    <rect
       transform="matrix(0,-1,1,0,0,0)"
       style="fill:#496154;fill-opacity:1;stroke:none"
       id="rect4792"
       width="5"
       height="2"
       x="-1043.3622"
       y="18" />
    <rect
       y="18"
       x="-1049.3622"
       height="2"
       width="5"
       id="rect4794"
       style="fill:#496154;fill-opacity:1;stroke:none"
       transform="matrix(0,-1,1,0,0,0)" />
    <rect
       transform="matrix(0,-1,1,0,0,0)"
       style="fill:#496154;fill-opacity:1;stroke:none"
       id="rect4796"
       width="5"
       height="2"
       x="-1040.3622"
       y="0" />
    <rect
       y="2.9901255e-008"
       x="-1046.3622"
       height="2"
       width="5"
       id="rect4798"
       style="fill:#496154;fill-opacity:1;stroke:none"
       transform="matrix(0,-1,1,0,0,0)" />
    <rect
       transform="matrix(0,-1,1,0,0,0)"
       style="fill:#496154;fill-opacity:1;stroke:none"
       id="rect4800"
       width="5"
       height="2"
       x="-1052.3622"
       y="2.9901255e-008" />
    <rect
       style="fill:#496154;fill-opacity:1;stroke:none"
       id="rect4802"
       width="5"
       height="2"
       x="3"
       y="1050.3622" />
    <rect
       y="1050.3622"
       x="9"
       height="2"
       width="5"
       id="rect4804"
       style="fill:#496154;fill-opacity:1;stroke:none" />
    <rect
       style="fill:#496154;fill-opacity:1;stroke:none"
       id="rect4806"
       width="5"
       height="2"
       x="15"
       y="1050.3622" />
  </g>
  <g
     inkscape:groupmode="layer"
     id="layer2"
     inkscape:label="tower"
     style="opacity:0.93999999;display:inline">
    <path
       sodipodi:type="star"
       style="fill:#496154;fill-opacity:1;stroke:none"
       id="path3000"
       sodipodi:sides="8"
       sodipodi:cx="5"
       sodipodi:cy="4"
       sodipodi:r1="1.4142137"
       sodipodi:r2="0.67882252"
       sodipodi:arg1="0.78539816"
       sodipodi:arg2="1.1780972"
       inkscape:flatsided="false"
       inkscape:rounded="0"
       inkscape:randomized="0"
       d="M 6.0000001,5.0000001 5.2597742,4.6271502 5,5.4142137 4.7402259,4.6271502 3.9999999,5.0000001 4.3728498,4.2597742 3.5857863,4 4.3728498,3.7402259 3.9999999,2.9999999 4.7402258,3.3728498 5,2.5857863 5.2597741,3.3728498 6.0000001,2.9999999 5.6271502,3.7402258 6.4142137,4 5.6271502,4.2597741 z"
       transform="matrix(1.5909902,0,0,1.5909902,-2.2049509,-0.61396087)" />
    <path
       style="fill:#496154;fill-opacity:1;stroke:#496154;stroke-width:0.19846083;stroke-linecap:butt;stroke-linejoin:miter;stroke-miterlimit:4;stroke-opacity:1;stroke-dasharray:none"
       d="m 8.3742304,14.248185 3.3027066,0"
       id="path3008"
       inkscape:connector-curvature="0" />
    <path
       inkscape:connector-curvature="0"
       id="path3784"
       d="m 8.373751,5.751249 3.3053,0"
       style="fill:#496154;fill-opacity:1;stroke:#496154;stroke-width:0.19750193;stroke-linecap:butt;stroke-linejoin:miter;stroke-miterlimit:4;stroke-opacity:1;stroke-dasharray:none" />
    <path
       style="fill:#496154;fill-opacity:1;stroke:#496154;stroke-width:0.20343506;stroke-linecap:butt;stroke-linejoin:miter;stroke-miterlimit:4;stroke-opacity:1;stroke-dasharray:none"
       d="m 5.7517175,8.3272493 0,3.2960327"
       id="path3786"
       inkscape:connector-curvature="0" />
    <path
       inkscape:connector-curvature="0"
       id="path3788"
       d="m 14.252257,8.3325413 0,3.2902017"
       style="fill:#496154;fill-opacity:1;stroke:#496154;stroke-width:0.20451483;stroke-linecap:butt;stroke-linejoin:miter;stroke-miterlimit:4;stroke-opacity:1;stroke-dasharray:none" />
    <path
       transform="matrix(1.5909902,0,0,1.5909902,6.2950491,-0.61396087)"
       d="M 6.0000001,5.0000001 5.2597742,4.6271502 5,5.4142137 4.7402259,4.6271502 3.9999999,5.0000001 4.3728498,4.2597742 3.5857863,4 4.3728498,3.7402259 3.9999999,2.9999999 4.7402258,3.3728498 5,2.5857863 5.2597741,3.3728498 6.0000001,2.9999999 5.6271502,3.7402258 6.4142137,4 5.6271502,4.2597741 z"
       inkscape:randomized="0"
       inkscape:rounded="0"
       inkscape:flatsided="false"
       sodipodi:arg2="1.1780972"
       sodipodi:arg1="0.78539816"
       sodipodi:r2="0.67882252"
       sodipodi:r1="1.4142137"
       sodipodi:cy="4"
       sodipodi:cx="5"
       sodipodi:sides="8"
       id="path3790"
       style="fill:#496154;fill-opacity:1;stroke:none"
       sodipodi:type="star" />
    <path
       transform="matrix(1.5909902,0,0,1.5909902,-2.2049509,7.8860391)"
       d="M 6.0000001,5.0000001 5.2597742,4.6271502 5,5.4142137 4.7402259,4.6271502 3.9999999,5.0000001 4.3728498,4.2597742 3.5857863,4 4.3728498,3.7402259 3.9999999,2.9999999 4.7402258,3.3728498 5,2.5857863 5.2597741,3.3728498 6.0000001,2.9999999 5.6271502,3.7402258 6.4142137,4 5.6271502,4.2597741 z"
       inkscape:randomized="0"
       inkscape:rounded="0"
       inkscape:flatsided="false"
       sodipodi:arg2="1.1780972"
       sodipodi:arg1="0.78539816"
       sodipodi:r2="0.67882252"
       sodipodi:r1="1.4142137"
       sodipodi:cy="4"
       sodipodi:cx="5"
       sodipodi:sides="8"
       id="path3792"
       style="fill:#496154;fill-opacity:1;stroke:none"
       sodipodi:type="star" />
    <path
       sodipodi:type="star"
       style="fill:#496154;fill-opacity:1;stroke:none"
       id="path3794"
       sodipodi:sides="8"
       sodipodi:cx="5"
       sodipodi:cy="4"
       sodipodi:r1="1.4142137"
       sodipodi:r2="0.67882252"
       sodipodi:arg1="0.78539816"
       sodipodi:arg2="1.1780972"
       inkscape:flatsided="false"
       inkscape:rounded="0"
       inkscape:randomized="0"
       d="M 6.0000001,5.0000001 5.2597742,4.6271502 5,5.4142137 4.7402259,4.6271502 3.9999999,5.0000001 4.3728498,4.2597742 3.5857863,4 4.3728498,3.7402259 3.9999999,2.9999999 4.7402258,3.3728498 5,2.5857863 5.2597741,3.3728498 6.0000001,2.9999999 5.6271502,3.7402258 6.4142137,4 5.6271502,4.2597741 z"
       transform="matrix(1.5909902,0,0,1.5909902,6.2950491,7.8860391)" />
  </g>
</svg>
